<svg xmlns="http://www.w3.org/2000/svg" viewBox="0 0 518.93 175.87" fill="none" role="img" aria-label="metime">
  <title>metime</title>
  <g class="metime-wave" fill="var(--metime-wave, #E8583A)">
    <path d="M32.53 139.73C29.23 140.3 25.94 142.49 23.33 144.5C20.22 146.89 9.42 157.29 9.8 160.89C18.16 177.2 28.6 151.36 37.29 151.4C45.39 151.43 51.62 167.19 66.23 167.48C81.62 167.78 88.33 151.37 96.2 151.4C103.51 151.43 110.76 165.78 122.24 167.32C138.93 169.55 140.65 158.16 151.23 152.59C160.97 147.46 168.98 165.71 181.14 167.32C196.61 169.38 199.42 159.49 209.55 153C219.36 146.72 227.61 165.19 239.2 167.17C255.12 169.89 258.1 159.63 268.46 153C276.64 147.76 281.58 157.24 286.91 161.4C294.86 167.6 303.1 169.59 312.58 165.14C318.77 162.24 326.64 151.08 332.76 151.49C339.6 151.94 346.65 165.84 357.86 167.31C373.79 169.41 375.65 160.07 385.73 153.44C395.58 146.95 401.58 160.53 409.49 164.62C416.11 168.04 423.75 168.47 430.56 165.3C436.92 162.34 444.02 151.24 450.55 151.52C456.35 151.77 462.53 161.6 468.4 164.62C474.41 167.72 479.89 168.21 486.3 166.13C492.26 164.19 513.77 147.59 504.45 141.6C493.72 134.71 487.41 161.06 474.6 153.45C464.07 147.19 462.97 137.83 446.64 139.5C435.65 140.62 427.61 155.3 420.69 155.3C414.36 155.3 407.53 144.61 401.45 141.76C394.94 138.71 387.43 138.39 380.93 141.67C371.13 146.62 366.88 160.46 354.95 152.29C345.52 145.83 344.68 138.43 329.79 139.45C317.26 140.31 309.91 155.32 302.87 155.3C293.64 155.27 288.78 138.21 270.88 139.45C258.13 140.33 250.59 155.9 243.03 155.4C234.41 154.83 229.75 138.22 211.98 139.45C199.07 140.34 191.62 155.9 184.13 155.4C175.51 154.83 170.85 138.22 153.08 139.45C140.44 140.32 132.41 155.82 125.24 155.43C118.78 155.07 111.31 141.5 100.96 139.73C84.88 136.99 82.8 146.03 72.67 152.88C62.96 159.46 59.77 150.58 53.25 145.49C46.73 140.4 40.69 138.32 32.55 139.73H32.53Z"/>
  </g>
  <g class="metime-wordmark" fill="currentColor">
    <path d="M103.49 125.76C98.47 124.25 95.46 120.4 92.78 116.55C91.94 115.21 91.44 113.7 91.44 112.03C91.44 110.36 91.94 108.68 92.61 107.01C96.13 99.14 100.48 91.94 104.83 84.41C106.67 80.89 109.18 77.88 110.19 73.7C110.36 72.86 110.53 71.69 110.53 71.02C110.36 69.68 109.69 68.84 108.35 69.68C104.33 72.02 100.82 74.7 96.97 77.71C89.94 83.74 83.75 90.77 77.39 97.29C74.38 100.47 71.53 103.65 68.85 107.17C66.84 109.85 63.83 111.69 61.82 114.37C61.15 115.37 59.48 115.88 57.8 115.88C55.79 115.88 53.45 115.21 52.11 114.21C50.6 113.04 49.77 110.69 49.77 108.52C49.77 107.35 49.94 106.01 50.61 105C53.96 99.31 57.64 93.62 60.82 87.76C63 83.74 64.84 79.39 66.68 75.04C67.18 73.87 67.35 72.7 67.35 71.52C67.35 69.18 67.35 68.34 66.68 68.34C66.34 68.34 65.84 68.67 64.84 69.18C58.48 72.7 53.63 77.88 48.77 83.41C46.59 85.75 43.75 87.59 42.24 90.44C39.73 95.63 35.21 99.65 32.36 104.84C31.02 107.18 29.01 109.19 27.51 111.2C25.17 114.38 23.99 117.9 20.98 121.08C19.98 122.08 19.31 122.92 18.13 122.92C17.63 122.92 17.13 122.92 16.62 122.59C15.78 122.42 14.61 122.92 13.77 122.42C13.6 122.25 13.27 122.25 13.1 122.25C12.26 122.25 11.43 122.59 10.59 122.59C9.75 122.59 8.92 121.92 8.92 120.41C8.92 119.41 8.58 117.73 8.58 116.56C8.58 115.72 8.75 114.89 9.42 114.22C10.93 112.38 10.42 109.7 11.6 107.86C14.78 99.49 19.13 91.46 22.15 83.09C23.15 80.41 25 77.9 26.33 75.39C25.83 73.21 27.5 71.71 28.51 70.03C31.02 66.18 33.03 62 35.54 58.15C36.88 56.14 37.55 55.3 38.55 55.3C39.22 55.3 40.22 55.8 41.56 56.47L43.4 57.31C45.58 58.48 46.58 59.49 46.58 61.33C46.58 62 46.41 62.67 46.25 63.51C45.58 65.52 44.58 67.36 43.91 69.37C43.58 70.04 42.57 70.88 43.74 71.38H44.07C44.57 71.38 45.24 71.04 45.41 70.04C45.58 68.37 47.25 68.03 48.09 66.69C50.77 65.85 51.94 63.01 54.12 61.5C57.47 59.16 60.82 57.32 64.5 57.32C66.68 57.32 69.02 57.99 71.36 59.33C73.2 60.33 75.04 61.17 76.72 62.68C78.39 64.52 80.24 66.53 79.57 69.38C79.4 70.05 79.57 70.89 79.57 71.39L80.57 75.57C81.74 75.07 82.58 73.9 83.58 73.06C89.44 68.21 95.3 63.18 101.83 59.5C103.84 58.33 106.01 57.99 108.02 57.99C110.2 57.99 112.54 58.33 114.72 58.99C116.39 59.33 116.73 61.67 117.73 63.01C120.41 67.03 121.91 71.04 121.91 75.4C121.91 78.08 121.41 80.76 119.9 83.77C117.72 88.12 115.21 92.14 113.04 96.66L107.52 107.54C107.19 108.38 106.85 109.05 106.85 109.72C106.85 112.23 109.36 113.9 112.37 113.9C116.55 113.9 119.07 110.05 122.41 109.05C125.93 107.88 137.64 93.15 142.83 79.09C143.5 77.42 144.67 76.58 146.18 76.58C147.02 76.58 147.85 76.92 148.86 77.25C149.36 77.58 149.86 77.92 150.7 78.09C153.21 78.93 154.05 80.43 154.05 82.27C154.05 84.28 153.05 86.79 152.04 89.3C150.53 92.82 140.32 109.39 137.81 112.23C134.29 115.91 130.78 119.6 126.43 122.78C122.08 125.96 117.56 127.3 112.87 127.3C109.86 127.3 106.68 126.8 103.5 125.79L103.49 125.76Z"/>
    <path d="M150.19 123.58C144 120.57 138.81 116.38 138.47 108.85C138.3 105.84 137.13 102.82 137.3 99.64C137.64 89.26 139.64 79.55 145.5 70.35C148.01 66.5 150.86 62.48 153.53 59.3C158.38 53.44 164.91 48.08 171.78 44.57C173.12 43.9 174.63 43.06 176.13 43.06C176.97 43.06 177.64 43.23 178.31 43.56C178.81 43.9 179.48 43.73 179.82 43.56C180.99 43.06 181.83 42.89 182.83 42.89C185.68 42.89 187.85 45.07 190.53 47.24C193.54 49.75 194.55 53.6 197.06 56.11C197.23 56.28 197.56 56.28 197.4 56.95C195.89 64.32 193.55 71.51 188.19 77.04C181.49 84.07 174.13 90.43 165.59 95.12C162.58 96.79 158.73 97.46 155.55 97.46C153.04 97.46 152.37 98.13 152.37 100.14C152.37 102.82 153.37 105.16 154.04 107.51C154.54 108.85 155.88 109.69 157.05 110.02C160.4 111.19 163.75 111.69 167.09 111.69C171.44 111.69 175.63 110.69 179.64 108.34C182.49 106.67 185.67 106 188.34 104.15C193.53 100.8 198.22 96.62 201.73 91.93C206.42 85.57 208.43 84.23 212.28 77.37C212.95 76.03 214.29 75.36 215.63 75.36C216.63 75.36 217.64 75.86 218.48 76.36L222 78.7C223.34 79.54 224.18 80.88 224.18 82.22C224.18 83.06 223.84 84.06 223.18 84.73C218.49 90.25 219 92.26 213.81 97.79C211.8 99.8 209.63 102.81 207.62 104.99C203.77 109.01 199.59 112.69 195.07 115.87C190.22 119.22 185.36 121.9 180 124.24C176.15 125.91 171.97 126.92 167.95 126.75C161.92 126.25 155.73 126.25 150.21 123.57L150.19 123.58ZM159.56 84.41C160.23 84.24 160.56 83.91 161.23 83.41C167.09 79.06 172.45 74.54 177.47 68.85C179.98 66.17 182.49 63.49 182.49 59.31C182.49 55.79 181.49 54.46 179.81 55.63C175.46 58.81 170.6 61.15 167.26 65.34C163.24 70.53 159.23 75.55 156.71 81.74C156.38 82.74 155.2 84.08 155.2 85.09C155.2 85.76 155.54 86.09 155.87 86.09C156.71 86.09 158.38 84.92 159.55 84.42L159.56 84.41Z"/>
    <path d="M222.33 124.75C218.31 123.91 215.63 121.4 213.29 118.39C211.95 116.72 209.77 115.04 209.11 113.7C208.27 111.69 207.44 109.18 207.44 107.17C207.44 106.5 207.44 105.83 207.61 105.33L207.78 104.33C207.28 102.99 206.94 101.48 206.94 100.31C206.94 97.63 207.78 94.95 208.28 92.44C209.12 87.92 210.46 83.23 212.3 78.88C214.48 74.19 215.82 69 219.16 64.65C219.16 64.65 218.99 63.98 219.66 63.14C219.66 63.14 220 62.3 220 62.14C220 60.8 218.66 59.96 218.33 59.8C215.82 60.8 210.63 61.64 208.12 61.64C206.95 61.64 206.11 61.64 205.94 61.14C204.77 58.46 203.26 55.62 203.26 52.77C203.26 50.43 205.27 48.59 208.28 47.92C214.14 46.75 219.66 46.75 225.86 46.92C228.71 46.92 230.55 46.08 232.22 43.57C235.74 37.88 240.42 32.52 244.94 28.34C246.28 27.17 247.12 25.16 249.79 26.16C251.8 26.83 253.81 30.51 253.31 32.86C252.97 34.2 253.64 36.71 250.97 36.54C250.8 36.54 250.47 37.04 250.47 37.04C250.47 40.56 247.46 42.4 246.29 45.07L245.95 46.07C245.95 46.74 246.62 46.74 247.46 46.91L250.14 47.08C255.33 47.08 260.35 47.58 266.04 48.42C268.55 48.75 270.73 49.76 270.73 52.6C270.73 53.1 271.07 53.44 271.23 53.77C271.73 54.77 271.9 55.61 271.9 55.95C271.9 57.12 270.73 57.62 269.05 58.29C265.37 59.63 261.85 59.29 258.34 59.29C255.66 59.29 252.82 59.79 250.47 59.79C249.13 59.79 247.79 59.62 246.79 59.29C246.29 59.12 245.62 59.12 245.28 59.12C243.77 59.12 242.1 59.79 240.59 59.79C239.92 59.79 239.59 59.62 238.75 59.45H238.41C237.74 59.45 237.07 59.79 236.74 60.45C232.72 68.48 227.7 75.68 225.19 84.39C223.68 89.58 223.01 94.43 222.34 100.12C222.01 102.97 223.51 105.48 226.19 107.15C228.87 108.82 231.88 109.49 234.73 109.49C235.73 109.49 236.91 109.49 237.74 109.32C238.24 109.15 238.41 108.82 239.25 108.98C240.25 109.32 241.43 109.32 242.1 109.32C247.12 109.32 250.8 105.3 253.98 102.29C260.84 96.26 264.19 87.89 268.71 79.86C269.05 79.02 269.71 78.35 270.22 78.02C271.39 77.35 271.73 76.51 274.74 75.84H275.24C276.58 75.84 277.58 76.84 278.92 78.02C279.42 78.35 280.26 81.7 280.43 82.71C281.1 85.39 274.74 98.78 272.23 101.46C269.05 104.81 266.87 108.16 263.53 112.01C259.85 116.03 255.66 119.54 250.47 121.38C248.46 124.23 244.78 124.73 242.1 125.23C239.42 125.56 236.58 125.9 234.07 125.9C230.22 125.9 226.04 125.4 222.35 124.73L222.33 124.75Z"/>
    <path d="M272.21 126.43C270.7 126.1 269.53 125.76 268.69 124.59C268.02 123.75 267.52 123.08 266.18 122.92C263.17 122.59 262 120.07 261.33 117.73C260.16 113.88 260.33 109.7 260.33 105.34C260.33 99.31 261.84 94.13 263.68 88.27C265.02 83.92 267.03 80.07 269.37 76.22C270.21 74.71 270.88 72.87 271.88 71.03C275.23 65 279.41 59.15 283.26 53.45C284.6 51.44 286.61 50.77 288.28 48.76C288.62 48.26 289.12 48.09 289.62 48.09C290.29 48.09 290.79 48.43 291.13 49.09C292.13 50.76 293.81 51.77 294.98 53.27C295.82 54.44 296.49 55.45 296.49 56.62C296.49 57.46 296.16 58.46 295.32 59.63C291.8 64.48 288.62 69.84 285.95 75.2C283.1 80.89 279.25 86.41 278.42 92.78C278.08 94.62 276.91 95.79 276.24 97.47C275.74 98.98 275.57 100.32 275.57 101.82C275.57 103.83 275.74 105.67 275.9 107.51C276.24 111.69 280.09 114.54 284.1 114.54C285.44 114.54 286.78 114.2 287.95 113.54C290.46 112.2 296.49 105.84 298.16 103.33C302.01 97.81 305.53 86.26 308.87 80.57C310.21 78.23 310.88 77.39 312.05 77.39C312.89 77.39 314.06 77.89 315.73 78.9C317.07 79.57 318.74 79.74 319.75 81.24C320.09 81.74 320.42 82.08 320.42 82.91C320.42 87.09 316.57 97.64 314.73 100.65C311.21 106.17 309.37 112.2 304.52 117.22C302.18 119.73 300.5 122.91 296.65 124.08C294.81 124.58 294.14 127.43 291.8 126.42C290.46 127.42 289.12 127.76 287.45 127.76C282.26 127.76 277.41 127.59 272.22 126.42L272.21 126.43Z"/>
    <path d="M386.87 125.76C381.85 124.25 378.84 120.4 376.16 116.55C375.32 115.21 374.82 113.7 374.82 112.03C374.82 110.36 375.32 108.68 375.99 107.01C379.51 99.14 383.86 91.94 388.21 84.41C390.05 80.89 392.56 77.88 393.57 73.7C393.74 72.86 393.91 71.69 393.91 71.02C393.74 69.68 393.07 68.84 391.73 69.68C387.71 72.02 384.2 74.7 380.35 77.71C373.32 83.74 367.13 90.77 360.77 97.29C357.76 100.47 354.91 103.65 352.23 107.17C350.22 109.85 347.21 111.69 345.2 114.37C344.53 115.37 342.86 115.88 341.18 115.88C339.17 115.88 336.83 115.21 335.49 114.21C333.98 113.04 333.15 110.69 333.15 108.52C333.15 107.35 333.32 106.01 333.99 105C337.34 99.31 341.02 93.62 344.2 87.76C346.38 83.74 348.22 79.39 350.06 75.04C350.56 73.87 350.73 72.7 350.73 71.52C350.73 69.18 350.73 68.34 350.06 68.34C349.72 68.34 349.22 68.67 348.22 69.18C341.86 72.7 337.01 77.88 332.15 83.41C329.97 85.75 327.13 87.59 325.62 90.44C323.11 95.63 318.59 99.65 315.74 104.84C314.4 107.18 312.39 109.19 310.89 111.2C308.55 114.38 307.37 117.9 304.36 121.08C303.36 122.08 302.69 122.92 301.51 122.92C301.01 122.92 300.51 122.92 300 122.59C299.16 122.42 297.99 122.92 297.15 122.42C296.98 122.25 296.65 122.25 296.48 122.25C295.64 122.25 294.81 122.59 293.97 122.59C293.13 122.59 292.3 121.92 292.3 120.41C292.3 119.41 291.96 117.73 291.96 116.56C291.96 115.72 292.13 114.89 292.8 114.22C294.31 112.38 293.8 109.7 294.98 107.86C298.16 99.49 302.51 91.46 305.53 83.09C306.53 80.41 308.38 77.9 309.71 75.39C309.21 73.21 310.88 71.71 311.89 70.03C314.4 66.18 316.41 62 318.92 58.15C320.26 56.14 320.93 55.3 321.93 55.3C322.6 55.3 323.6 55.8 324.94 56.47L326.78 57.31C328.96 58.48 329.96 59.49 329.96 61.33C329.96 62 329.79 62.67 329.63 63.51C328.96 65.52 327.96 67.36 327.29 69.37C326.96 70.04 325.95 70.88 327.12 71.38H327.45C327.95 71.38 328.62 71.04 328.79 70.04C328.96 68.37 330.63 68.03 331.47 66.69C334.15 65.85 335.32 63.01 337.5 61.5C340.85 59.16 344.2 57.32 347.88 57.32C350.06 57.32 352.4 57.99 354.74 59.33C356.58 60.33 358.42 61.17 360.1 62.68C361.77 64.52 363.62 66.53 362.95 69.38C362.78 70.05 362.95 70.89 362.95 71.39L363.95 75.57C365.12 75.07 365.96 73.9 366.96 73.06C372.82 68.21 378.68 63.18 385.21 59.5C387.22 58.33 389.39 57.99 391.4 57.99C393.58 57.99 395.92 58.33 398.1 58.99C399.77 59.33 400.11 61.67 401.11 63.01C403.79 67.03 405.29 71.04 405.29 75.4C405.29 78.08 404.79 80.76 403.28 83.77C401.1 88.12 398.59 92.14 396.42 96.66L390.9 107.54C390.57 108.38 390.23 109.05 390.23 109.72C390.23 112.23 392.74 113.9 395.75 113.9C399.93 113.9 402.45 110.05 405.79 109.05C409.31 107.88 421.02 93.15 426.21 79.09C426.88 77.42 428.05 76.58 429.56 76.58C430.4 76.58 431.23 76.92 432.24 77.25C432.74 77.58 433.24 77.92 434.08 78.09C436.59 78.93 437.43 80.43 437.43 82.27C437.43 84.28 436.43 86.79 435.42 89.3C433.91 92.82 423.7 109.39 421.19 112.23C417.67 115.91 414.16 119.6 409.81 122.78C405.46 125.96 400.94 127.3 396.25 127.3C393.24 127.3 390.06 126.8 386.88 125.79L386.87 125.76Z"/>
    <path d="M433.57 123.58C427.38 120.57 422.19 116.38 421.85 108.85C421.68 105.84 420.51 102.82 420.68 99.64C421.02 89.26 423.02 79.55 428.88 70.35C431.39 66.5 434.24 62.48 436.91 59.3C441.76 53.44 448.29 48.08 455.16 44.57C456.5 43.9 458.01 43.06 459.51 43.06C460.35 43.06 461.02 43.23 461.69 43.56C462.19 43.9 462.86 43.73 463.2 43.56C464.37 43.06 465.21 42.89 466.21 42.89C469.06 42.89 471.23 45.07 473.91 47.24C476.92 49.75 477.93 53.6 480.44 56.11C480.61 56.28 480.94 56.28 480.78 56.95C479.27 64.32 476.93 71.51 471.57 77.04C464.87 84.07 457.51 90.43 448.97 95.12C445.96 96.79 442.11 97.46 438.93 97.46C436.42 97.46 435.75 98.13 435.75 100.14C435.75 102.82 436.75 105.16 437.42 107.51C437.92 108.85 439.26 109.69 440.43 110.02C443.78 111.19 447.13 111.69 450.47 111.69C454.82 111.69 459.01 110.69 463.02 108.34C465.87 106.67 469.05 106 471.72 104.15C476.91 100.8 481.6 96.62 485.11 91.93C489.8 85.57 491.81 84.23 495.66 77.37C496.33 76.03 497.67 75.36 499.01 75.36C500.01 75.36 501.02 75.86 501.86 76.36L505.38 78.7C506.72 79.54 507.56 80.88 507.56 82.22C507.56 83.06 507.22 84.06 506.56 84.73C501.87 90.25 502.37 92.26 497.19 97.79C495.18 99.8 493.01 102.81 491 104.99C487.15 109.01 482.97 112.69 478.45 115.87C473.6 119.22 468.74 121.9 463.38 124.24C459.53 125.91 455.35 126.92 451.33 126.75C445.3 126.25 439.11 126.25 433.59 123.57L433.57 123.58ZM442.95 84.41C443.62 84.24 443.95 83.91 444.62 83.41C450.48 79.06 455.84 74.54 460.86 68.85C463.37 66.17 465.88 63.49 465.88 59.31C465.88 55.79 464.88 54.46 463.2 55.63C458.85 58.81 453.99 61.15 450.65 65.34C446.63 70.53 442.62 75.55 440.1 81.74C439.77 82.74 438.59 84.08 438.59 85.09C438.59 85.76 438.93 86.09 439.26 86.09C440.1 86.09 441.77 84.92 442.94 84.42L442.95 84.41Z"/>
    <path d="M304.31 38C308.723 38 312.3 34.4228 312.3 30.01C312.3 25.5972 308.723 22.02 304.31 22.02C299.897 22.02 296.32 25.5972 296.32 30.01C296.32 34.4228 299.897 38 304.31 38Z"/>
  </g>
</svg>
